<svg width="18" height="15" viewBox="0 0 18 15" fill="#DCB44E" xmlns="http://www.w3.org/2000/svg">
<path d="M14.4283 0.927391C14.4399 0.361647 14.419 0.00417742 14.419 0.00417742L9.02735 0H9H8.97265L3.58045 0.00417742C3.58045 0.00417742 3.56008 0.361647 3.57172 0.927391H0V1.53133C0 1.66918 0.0226979 4.92102 1.97995 6.7024C2.7965 7.44539 3.81499 7.81897 5.01565 7.81957C5.19723 7.81957 5.38405 7.80704 5.5732 7.79033C6.2553 8.74815 7.04333 9.41893 7.92971 9.75313V12.4058H5.3276V14.0672H4.46799V14.9988H8.97265H9.02735H13.532V14.0678H12.6718V12.4064H10.0697V9.75372C10.9555 9.41953 11.7441 8.74875 12.4262 7.79092C12.6165 7.80763 12.8034 7.81957 12.9849 7.81957C14.185 7.81837 15.2035 7.44539 16.02 6.7018C17.9773 4.92043 18 1.66859 18 1.53073V0.927391H14.4283ZM2.76565 5.80187C1.64763 4.78734 1.31706 3.05072 1.21928 2.13527H3.63923C3.74166 3.27571 3.9826 4.69663 4.53841 5.94569C4.64026 6.17485 4.74735 6.39208 4.85676 6.60453C4.02276 6.57171 3.32087 6.30495 2.76565 5.80187ZM15.2344 5.80187C14.6797 6.30554 13.9772 6.57171 13.1438 6.60453C13.2532 6.39267 13.3603 6.17485 13.4622 5.94569C14.018 4.69663 14.2589 3.27571 14.3608 2.13527H16.7807C16.6829 3.05013 16.3529 4.78675 15.2344 5.80187Z"/>
</svg>
